<?xml version="1.0" standalone="no"?>
<!DOCTYPE svg PUBLIC "-//W3C//DTD SVG 20010904//EN"
 "http://www.w3.org/TR/2001/REC-SVG-20010904/DTD/svg10.dtd">
<svg version="1.0" xmlns="http://www.w3.org/2000/svg"
 width="512.000000pt" height="512.000000pt" viewBox="0 0 512.000000 512.000000"
 preserveAspectRatio="xMidYMid meet">
<metadata>
Created by potrace 1.14, written by Peter Selinger 2001-2017
</metadata>
<g transform="translate(0.000000,512.000000) scale(0.100000,-0.100000)"
fill="#000000" stroke="none">
<path d="M0 2560 l0 -2560 2560 0 2560 0 0 2560 0 2560 -2560 0 -2560 0 0
-2560z m3610 2044 c43 -9 57 -41 36 -82 -14 -27 -23 -32 -73 -39 -32 -4 -524
-8 -1093 -8 -1138 0 -1116 -1 -1146 57 -14 27 -14 32 1 48 10 11 27 21 39 23
35 7 2201 8 2236 1z m-219 -372 c29 -26 31 -31 24 -71 -4 -23 -16 -51 -28 -62
-20 -19 -42 -19 -896 -19 -688 1 -880 3 -893 13 -9 7 -21 32 -28 57 -13 49 -3
81 34 98 14 7 313 11 888 11 l868 1 31 -28z m-202 -376 c32 -29 27 -110 -8
-137 -24 -19 -42 -20 -696 -17 -560 3 -675 5 -689 17 -13 11 -16 28 -14 75 l3
61 45 12 c33 9 217 11 691 10 625 -2 648 -3 668 -21z m892 -246 c10 0 25 -12
33 -27 16 -33 3 -101 -30 -149 -11 -16 -31 -55 -44 -87 -13 -33 -38 -75 -57
-94 -18 -20 -33 -42 -33 -49 0 -7 -15 -30 -32 -50 -31 -35 -58 -72 -153 -211
-19 -29 -44 -57 -55 -63 -11 -6 -29 -28 -39 -49 -11 -21 -31 -45 -45 -55 -15
-9 -37 -34 -51 -56 -14 -22 -59 -74 -100 -116 -41 -42 -75 -83 -75 -91 0 -7
-59 -73 -130 -145 -72 -73 -140 -148 -152 -169 -11 -20 -32 -43 -45 -50 -13
-7 -32 -26 -41 -41 -9 -15 -20 -28 -24 -28 -4 0 -65 -58 -135 -130 -70 -71
-134 -135 -141 -142 -8 -7 -58 -57 -112 -110 -53 -54 -102 -98 -109 -98 -6 0
-66 -56 -134 -124 -68 -68 -141 -135 -163 -149 -21 -14 -75 -59 -119 -101 -44
-42 -84 -76 -89 -76 -5 0 -30 -21 -57 -47 -66 -65 -127 -118 -165 -146 -18
-12 -69 -51 -114 -87 -45 -36 -97 -74 -116 -86 -19 -11 -49 -35 -67 -51 -18
-17 -50 -40 -73 -51 -22 -11 -47 -28 -54 -37 -8 -9 -37 -28 -64 -42 -28 -14
-68 -41 -89 -59 -20 -19 -43 -34 -51 -34 -7 0 -49 -18 -92 -40 -61 -31 -90
-40 -129 -40 -28 0 -56 5 -63 12 -7 7 -12 37 -12 68 0 46 6 65 31 103 17 26
43 57 59 70 26 22 32 23 83 14 55 -10 57 -9 124 30 37 23 79 44 93 48 14 4 41
22 60 40 19 18 54 42 77 54 23 12 57 34 75 50 18 15 47 36 65 45 17 9 38 24
45 34 7 10 29 29 48 42 35 24 44 32 183 162 75 69 78 74 72 107 -4 19 -6 516
-6 1105 0 859 3 1071 13 1077 40 25 180 22 206 -5 11 -10 14 -190 17 -965 3
-851 5 -955 20 -977 8 -13 24 -24 35 -24 25 0 97 62 194 170 l29 32 -2 873 -2
873 22 21 c29 27 132 30 167 5 l22 -15 0 -724 c0 -446 4 -734 10 -749 5 -14
15 -26 21 -26 14 0 66 43 167 139 l77 73 3 643 c3 568 5 645 19 656 9 8 52 15
107 17 144 6 131 55 131 -485 0 -422 1 -461 18 -486 9 -15 22 -27 27 -27 5 0
21 16 37 36 15 20 57 67 93 105 99 104 162 179 199 237 18 28 37 52 41 52 4 0
25 25 45 56 20 30 43 58 51 61 8 3 24 23 35 45 11 21 31 49 45 60 13 12 35 46
48 75 14 29 39 70 56 92 30 36 32 46 37 139 5 89 8 101 27 112 38 20 120 39
150 34 16 -2 37 -4 47 -4z"/>
</g>
</svg>
