<svg width="100" height="100" viewBox="0 0 100 100" fill="none" xmlns="http://www.w3.org/2000/svg">
<rect x="0.5" y="0.5" width="99" height="99" rx="49.5" fill="white" stroke="#B8967E"/>
<path d="M64.9137 49.595C64.87 49.4963 63.8112 47.1475 61.4575 44.7937C58.3212 41.6575 54.36 40 50 40C45.64 40 41.6787 41.6575 38.5425 44.7937C36.1887 47.1475 35.125 49.5 35.0862 49.595C35.0294 49.7229 35 49.8613 35 50.0012C35 50.1412 35.0294 50.2796 35.0862 50.4075C35.13 50.5062 36.1887 52.8538 38.5425 55.2075C41.6787 58.3425 45.64 60 50 60C54.36 60 58.3212 58.3425 61.4575 55.2075C63.8112 52.8538 64.87 50.5062 64.9137 50.4075C64.9706 50.2796 65 50.1412 65 50.0012C65 49.8613 64.9706 49.7229 64.9137 49.595ZM50 58C46.1525 58 42.7912 56.6012 40.0087 53.8438C38.867 52.7084 37.8957 51.4137 37.125 50C37.8955 48.5862 38.8669 47.2915 40.0087 46.1562C42.7912 43.3988 46.1525 42 50 42C53.8475 42 57.2087 43.3988 59.9912 46.1562C61.1352 47.2912 62.1086 48.5859 62.8812 50C61.98 51.6825 58.0537 58 50 58ZM50 44C48.8133 44 47.6533 44.3519 46.6666 45.0112C45.6799 45.6705 44.9108 46.6075 44.4567 47.7039C44.0026 48.8003 43.8838 50.0067 44.1153 51.1705C44.3468 52.3344 44.9182 53.4035 45.7573 54.2426C46.5965 55.0818 47.6656 55.6532 48.8294 55.8847C49.9933 56.1162 51.1997 55.9974 52.2961 55.5433C53.3924 55.0892 54.3295 54.3201 54.9888 53.3334C55.6481 52.3467 56 51.1867 56 50C55.9983 48.4092 55.3657 46.884 54.2408 45.7592C53.1159 44.6343 51.5908 44.0017 50 44ZM50 54C49.2089 54 48.4355 53.7654 47.7777 53.3259C47.1199 52.8864 46.6072 52.2616 46.3045 51.5307C46.0017 50.7998 45.9225 49.9956 46.0768 49.2196C46.2312 48.4437 46.6122 47.731 47.1716 47.1716C47.731 46.6122 48.4437 46.2312 49.2196 46.0769C49.9956 45.9225 50.7998 46.0017 51.5307 46.3045C52.2616 46.6072 52.8863 47.1199 53.3259 47.7777C53.7654 48.4355 54 49.2089 54 50C54 51.0609 53.5786 52.0783 52.8284 52.8284C52.0783 53.5786 51.0609 54 50 54Z" fill="#B8967E"/>
</svg>
