<svg width="100" height="100" viewBox="0 0 100 100" fill="none" xmlns="http://www.w3.org/2000/svg">
<rect x="0.5" y="0.5" width="99" height="99" rx="49.5" fill="white" stroke="#B8967E"/>
<path d="M64.4149 48.5863L62.4149 46.5863C62.0757 46.2474 61.6261 46.0417 61.148 46.0066C60.6698 45.9715 60.195 46.1094 59.8099 46.395L53.6049 40.19C53.8908 39.8051 54.0288 39.3303 53.9939 38.8522C53.959 38.3741 53.7536 37.9244 53.4149 37.585L51.4149 35.585C51.2292 35.3992 51.0087 35.2519 50.766 35.1513C50.5234 35.0508 50.2633 34.9991 50.0006 34.9991C49.7379 34.9991 49.4778 35.0508 49.2351 35.1513C48.9924 35.2519 48.7719 35.3992 48.5862 35.585L40.5862 43.585C40.4004 43.7707 40.2531 43.9912 40.1525 44.2339C40.052 44.4766 40.0003 44.7367 40.0003 44.9994C40.0003 45.2621 40.052 45.5222 40.1525 45.7648C40.2531 46.0075 40.4004 46.228 40.5862 46.4138L42.5862 48.4138C42.9255 48.7521 43.3749 48.9573 43.8528 48.9922C44.3307 49.027 44.8051 48.8892 45.1899 48.6038L46.0862 49.5L37.9137 57.6725C37.3707 58.2663 37.0778 59.0467 37.0958 59.8511C37.1137 60.6555 37.4413 61.422 38.0103 61.9909C38.5792 62.5599 39.3457 62.8875 40.1501 62.9054C40.9545 62.9234 41.7349 62.6305 42.3287 62.0875L50.4999 53.915L51.3962 54.81C51.1104 55.1949 50.9724 55.6697 51.0072 56.1478C51.0421 56.6259 51.2476 57.0756 51.5862 57.415L53.5862 59.415C53.7719 59.6008 53.9924 59.7481 54.2351 59.8487C54.4778 59.9492 54.7379 60.0009 55.0006 60.0009C55.2633 60.0009 55.5234 59.9492 55.766 59.8487C56.0087 59.7481 56.2292 59.6008 56.4149 59.415L64.4149 51.415C64.6007 51.2293 64.7481 51.0088 64.8486 50.7661C64.9491 50.5234 65.0009 50.2633 65.0009 50.0006C65.0009 49.7379 64.9491 49.4778 64.8486 49.2352C64.7481 48.9925 64.6007 48.772 64.4149 48.5863ZM43.9999 47L41.9999 45L49.9999 37L51.9999 39L43.9999 47ZM40.9149 60.6725C40.7042 60.882 40.419 60.9996 40.1218 60.9996C39.8246 60.9996 39.5395 60.882 39.3287 60.6725C39.1195 60.4618 39.0022 60.1769 39.0022 59.88C39.0022 59.5831 39.1195 59.2982 39.3287 59.0875L47.4999 50.915L49.0862 52.5L40.9149 60.6725ZM46.6249 47.2075L52.2074 41.625L58.3749 47.7925L52.7937 53.375L46.6249 47.2075ZM54.9999 58L52.9999 56L53.4999 55.5L60.4999 48.5L60.9999 48L62.9999 50L54.9999 58Z" fill="#B8967E"/>
</svg>
