<svg width="100" height="100" viewBox="0 0 100 100" fill="none" xmlns="http://www.w3.org/2000/svg">
<rect x="0.5" y="0.5" width="99" height="99" rx="49.5" fill="white" stroke="#B8967E"/>
<path d="M49 46.9V56C49 56.2652 49.1054 56.5196 49.2929 56.7071C49.4804 56.8946 49.7348 57 50 57C50.2652 57 50.5196 56.8946 50.7071 56.7071C50.8946 56.5196 51 56.2652 51 56V46.9C52.214 46.6522 53.2928 45.9624 54.0272 44.9644C54.7616 43.9664 55.0992 42.7313 54.9747 41.4985C54.8501 40.2657 54.2723 39.123 53.3532 38.2921C52.434 37.4611 51.2391 37.001 50 37.001C48.7609 37.001 47.566 37.4611 46.6468 38.2921C45.7277 39.123 45.1499 40.2657 45.0253 41.4985C44.9008 42.7313 45.2384 43.9664 45.9728 44.9644C46.7072 45.9624 47.786 46.6522 49 46.9ZM50 39C50.5933 39 51.1734 39.1759 51.6667 39.5056C52.1601 39.8352 52.5446 40.3038 52.7716 40.852C52.9987 41.4001 53.0581 42.0033 52.9424 42.5853C52.8266 43.1672 52.5409 43.7018 52.1213 44.1213C51.7018 44.5409 51.1672 44.8266 50.5853 44.9424C50.0033 45.0581 49.4001 44.9987 48.8519 44.7716C48.3038 44.5446 47.8352 44.1601 47.5056 43.6667C47.1759 43.1734 47 42.5933 47 42C47 41.2044 47.3161 40.4413 47.8787 39.8787C48.4413 39.3161 49.2044 39 50 39ZM64 56C64 59.8975 56.7863 62 50 62C43.2137 62 36 59.8975 36 56C36 55.0325 36.4762 53.6088 38.75 52.3238C40.2825 51.4563 42.39 50.79 44.8462 50.3963C44.9762 50.3757 45.1089 50.381 45.2368 50.4118C45.3646 50.4425 45.4852 50.4982 45.5916 50.5755C45.698 50.6529 45.7881 50.7505 45.8568 50.8627C45.9254 50.9748 45.9714 51.0995 45.9919 51.2294C46.0124 51.3593 46.0071 51.492 45.9764 51.6199C45.9456 51.7478 45.8899 51.8684 45.8126 51.9747C45.7352 52.0811 45.6377 52.1712 45.5255 52.2399C45.4133 52.3086 45.2887 52.3545 45.1587 52.375C42.9662 52.7275 41.0337 53.3288 39.7312 54.0688C38.6312 54.6875 38 55.3925 38 56C38 57.67 42.565 60 50 60C57.435 60 62 57.67 62 56C62 55.3925 61.3687 54.6875 60.2687 54.0638C58.9612 53.3238 57.0337 52.7225 54.8412 52.37C54.7086 52.3527 54.5807 52.3089 54.4653 52.2412C54.3498 52.1736 54.2491 52.0835 54.1691 51.9762C54.0891 51.8689 54.0315 51.7467 53.9996 51.6167C53.9677 51.4868 53.9622 51.3517 53.9835 51.2196C54.0047 51.0875 54.0523 50.961 54.1233 50.8476C54.1943 50.7342 54.2874 50.6362 54.397 50.5594C54.5066 50.4826 54.6305 50.4286 54.7613 50.4006C54.8922 50.3726 55.0273 50.3711 55.1588 50.3963C57.615 50.79 59.7225 51.4563 61.255 52.3238C63.5237 53.6088 64 55.0325 64 56Z" fill="#CC926A"/>
</svg>
