<svg width="100" height="100" viewBox="0 0 100 100" fill="none" xmlns="http://www.w3.org/2000/svg">
<rect x="0.5" y="0.5" width="99" height="99" rx="49.5" fill="white" stroke="#B8967E"/>
<path d="M61.7521 44.3994C63.1398 47.3017 63.4032 50.6151 62.4916 53.7001C61.5799 56.7852 59.5578 59.4232 56.8156 61.105C54.0733 62.7869 50.8052 63.3933 47.6421 62.8073C44.479 62.2213 41.6451 60.4843 39.6873 57.9317C37.7295 55.3792 36.7866 52.1918 37.0407 48.9849C37.2947 45.7781 38.7276 42.7789 41.0629 40.5664C43.3981 38.3539 46.4702 37.0848 49.6861 37.0041C52.902 36.9234 56.0338 38.0368 58.4771 40.1294L61.3109 37.2944C61.4985 37.1068 61.753 37.0013 62.0184 37.0013C62.2837 37.0013 62.5382 37.1068 62.7259 37.2944C62.9135 37.482 63.0189 37.7365 63.0189 38.0019C63.0189 38.2673 62.9135 38.5218 62.7259 38.7094L50.7259 50.7094C50.5382 50.897 50.2837 51.0025 50.0184 51.0025C49.753 51.0025 49.4985 50.897 49.3109 50.7094C49.1232 50.5218 49.0178 50.2673 49.0178 50.0019C49.0178 49.7365 49.1232 49.482 49.3109 49.2944L52.7759 45.8294C51.8368 45.2083 50.7156 44.9224 49.5938 45.0178C48.472 45.1133 47.4153 45.5845 46.5946 46.3553C45.774 47.1261 45.2375 48.1513 45.072 49.2649C44.9065 50.3785 45.1217 51.5154 45.6828 52.4915C46.2438 53.4676 47.1179 54.2258 48.1634 54.6433C49.209 55.0608 50.3649 55.1133 51.444 54.7921C52.523 54.4709 53.4622 53.795 54.1093 52.8737C54.7564 51.9524 55.0736 50.8397 55.0096 49.7157C55.0022 49.5843 55.0208 49.4528 55.0642 49.3287C55.1077 49.2045 55.1751 49.0902 55.2627 48.9921C55.3504 48.894 55.4565 48.8141 55.575 48.7571C55.6935 48.7 55.8221 48.6668 55.9534 48.6594C56.2186 48.6445 56.4789 48.7355 56.677 48.9125C56.775 49.0002 56.8549 49.1063 56.912 49.2248C56.9691 49.3433 57.0022 49.4718 57.0096 49.6032C57.1008 51.1941 56.6464 52.7686 55.7215 54.0663C54.7966 55.364 53.4566 56.3073 51.923 56.7403C50.3893 57.1733 48.7538 57.07 47.2869 56.4475C45.8199 55.8251 44.6092 54.7207 43.8549 53.3169C43.1006 51.9132 42.8479 50.294 43.1385 48.7272C43.429 47.1603 44.2456 45.7395 45.453 44.6996C46.6605 43.6596 48.1867 43.0628 49.7794 43.0078C51.372 42.9528 52.9357 43.4428 54.2121 44.3969L57.0559 41.5532C54.9719 39.8229 52.3221 38.9236 49.6154 39.028C46.9088 39.1324 44.3361 40.2331 42.3916 42.1187C40.4471 44.0044 39.2678 46.5419 39.0802 49.2441C38.8926 51.9463 39.71 54.6225 41.3753 56.7587C43.0407 58.8949 45.4366 60.3405 48.1028 60.8179C50.7691 61.2953 53.5177 60.7707 55.8208 59.345C58.1239 57.9193 59.819 55.693 60.5806 53.0936C61.3422 50.4942 61.1166 47.7051 59.9471 45.2619C59.8328 45.0225 59.8181 44.7476 59.9065 44.4974C59.9949 44.2473 60.179 44.0425 60.4184 43.9282C60.6577 43.8138 60.9327 43.7992 61.1828 43.8876C61.433 43.9759 61.6378 44.16 61.7521 44.3994Z" fill="#B8967E"/>
</svg>
