<svg width="100" height="100" viewBox="0 0 100 100" fill="none" xmlns="http://www.w3.org/2000/svg">
<rect x="0.5" y="0.5" width="99" height="99" rx="49.5" fill="white" stroke="#B8967E"/>
<path d="M57.4474 52.105L53.4474 50.105C53.29 50.0265 53.1146 49.991 52.939 50.002C52.7634 50.0129 52.5939 50.07 52.4474 50.1675L50.6112 51.3925C49.7682 50.9291 49.0745 50.2354 48.6112 49.3925L49.8362 47.5562C49.9336 47.4098 49.9907 47.2402 50.0017 47.0646C50.0127 46.8891 49.9771 46.7137 49.8987 46.5562L47.8987 42.5563C47.8158 42.3888 47.6876 42.248 47.5288 42.1497C47.3699 42.0514 47.1867 41.9995 46.9999 42C45.6738 42 44.4021 42.5268 43.4644 43.4645C42.5267 44.4021 41.9999 45.6739 41.9999 47C42.0032 49.9164 43.1632 52.7123 45.2254 54.7745C47.2876 56.8367 50.0835 57.9967 52.9999 58C53.6565 58 54.3067 57.8707 54.9133 57.6194C55.52 57.3681 56.0711 56.9998 56.5354 56.5355C56.9997 56.0712 57.368 55.52 57.6193 54.9134C57.8706 54.3068 57.9999 53.6566 57.9999 53C58 52.8142 57.9484 52.6321 57.8508 52.474C57.7532 52.3159 57.6135 52.1881 57.4474 52.105ZM52.9999 56C50.6138 55.9974 48.3261 55.0483 46.6389 53.361C44.9516 51.6738 44.0026 49.3861 43.9999 47C43.9997 46.3064 44.2399 45.6342 44.6795 45.0977C45.1191 44.5612 45.731 44.1936 46.4112 44.0575L47.8462 46.9325L46.6249 48.75C46.5336 48.8869 46.4776 49.0442 46.4617 49.2079C46.4457 49.3717 46.4705 49.5368 46.5337 49.6888C47.2491 51.3892 48.6019 52.742 50.3024 53.4575C50.4548 53.5235 50.6212 53.5505 50.7866 53.5361C50.952 53.5217 51.1112 53.4663 51.2499 53.375L53.0762 52.1575L55.9512 53.5925C55.814 54.2734 55.4448 54.8856 54.9066 55.3247C54.3684 55.7637 53.6945 56.0024 52.9999 56ZM49.9999 37C47.7555 36.9995 45.5492 37.5801 43.5957 38.6853C41.6423 39.7905 40.0082 41.3826 38.8526 43.3066C37.697 45.2307 37.0593 47.4212 37.0014 49.6648C36.9435 51.9085 37.4675 54.1289 38.5224 56.11L37.1037 60.3662C36.9861 60.7186 36.9691 61.0968 37.0544 61.4583C37.1397 61.8199 37.3241 62.1505 37.5867 62.4132C37.8494 62.6759 38.18 62.8602 38.5416 62.9455C38.9031 63.0308 39.2813 63.0138 39.6337 62.8962L43.8899 61.4775C45.6334 62.4048 47.5652 62.9228 49.5387 62.992C51.5122 63.0613 53.4756 62.68 55.2797 61.8772C57.0839 61.0743 58.6815 59.871 59.9512 58.3586C61.2209 56.8462 62.1293 55.0644 62.6076 53.1484C63.0858 51.2325 63.1213 49.2328 62.7113 47.301C62.3013 45.3693 61.4567 43.5564 60.2414 41.9999C59.0262 40.4434 57.4723 39.1842 55.6978 38.3178C53.9232 37.4515 51.9746 37.0008 49.9999 37ZM49.9999 61C48.0661 61.0013 46.1663 60.4921 44.4924 59.5238C44.3699 59.4527 44.2336 59.4085 44.0927 59.394C43.9517 59.3796 43.8093 59.3953 43.6749 59.44L38.9999 61L40.5587 56.325C40.6036 56.1907 40.6195 56.0483 40.6052 55.9074C40.591 55.7665 40.547 55.6301 40.4762 55.5075C39.2636 53.4111 38.7768 50.9732 39.0912 48.572C39.4056 46.1707 40.5036 43.9403 42.215 42.2267C43.9264 40.5132 46.1554 39.4123 48.5563 39.0949C50.9572 38.7775 53.3957 39.2612 55.4936 40.4711C57.5915 41.681 59.2314 43.5494 60.1591 45.7864C61.0868 48.0235 61.2502 50.5042 60.6242 52.8436C59.9981 55.1831 58.6176 57.2505 56.6966 58.7253C54.7756 60.2 52.4217 60.9996 49.9999 61Z" fill="#CC926A"/>
</svg>
